<svg xmlns="http://www.w3.org/2000/svg" width="21.998" height="22" viewBox="0 0 21.998 22">
  <path id="Shape" d="M19.347,22H14.842a2.7,2.7,0,0,1-2.65-2.75v-4.4a2.7,2.7,0,0,1,2.65-2.749h4.506A2.7,2.7,0,0,1,22,14.85v4.4A2.7,2.7,0,0,1,19.347,22Zm-4.506-7.7a.561.561,0,0,0-.53.55v4.4a.561.561,0,0,0,.53.55h4.506a.562.562,0,0,0,.531-.55v-4.4a.562.562,0,0,0-.531-.55ZM7.156,22H2.782A2.8,2.8,0,0,1,0,19.25v-4.4A2.8,2.8,0,0,1,2.782,12.1H7.156A2.737,2.737,0,0,1,9.939,14.85v4.4A2.737,2.737,0,0,1,7.156,22ZM2.782,14.3a.561.561,0,0,0-.53.55v4.4a.561.561,0,0,0,.53.55H7.156a.485.485,0,0,0,.53-.55v-4.4a.485.485,0,0,0-.53-.55ZM19.347,9.9H14.842a2.705,2.705,0,0,1-2.65-2.751V2.75A2.7,2.7,0,0,1,14.842,0h4.506A2.7,2.7,0,0,1,22,2.75v4.4A2.705,2.705,0,0,1,19.347,9.9ZM14.842,2.2a.562.562,0,0,0-.53.551v4.4a.562.562,0,0,0,.53.551h4.506a.563.563,0,0,0,.531-.551V2.75a.563.563,0,0,0-.531-.551ZM7.156,9.9H2.782A2.8,2.8,0,0,1,0,7.149V2.75A2.8,2.8,0,0,1,2.782,0H7.156A2.737,2.737,0,0,1,9.939,2.75v4.4A2.738,2.738,0,0,1,7.156,9.9ZM2.782,2.2a.562.562,0,0,0-.53.551v4.4a.562.562,0,0,0,.53.551H7.156a.486.486,0,0,0,.53-.551V2.75a.486.486,0,0,0-.53-.551Z" fill="#434343"/>
</svg>
