<svg xmlns="http://www.w3.org/2000/svg" width="22" height="22.002" viewBox="0 0 22 22.002">
  <path id="Shape" d="M13.784,22h-.663a1.1,1.1,0,0,1,0-2.2h.663a2.637,2.637,0,0,0,2.65-2.617V15.66a3.281,3.281,0,0,1-1.06-2.46V11a3.147,3.147,0,0,1,1.855-2.963A6.111,6.111,0,0,0,11,2.2,5.973,5.973,0,0,0,6.428,4.053,7.362,7.362,0,0,0,4.639,8.037,3.148,3.148,0,0,1,6.494,11v2.2a3.29,3.29,0,0,1-3.312,3.3,3.1,3.1,0,0,1-2.237-.967A3.33,3.33,0,0,1,0,13.2V11A3.288,3.288,0,0,1,2.253,7.871,8.553,8.553,0,0,1,11,0a8.448,8.448,0,0,1,6.114,2.451,9.455,9.455,0,0,1,2.634,5.421A3.482,3.482,0,0,1,22,11v2.2a3.392,3.392,0,0,1-3.312,3.3v.683a4.733,4.733,0,0,1-1.458,3.407A4.915,4.915,0,0,1,13.784,22Zm4.9-12.1A1.15,1.15,0,0,0,17.495,11v2.2a1.15,1.15,0,0,0,1.193,1.1,1.123,1.123,0,0,0,1.06-1.1V11A1.123,1.123,0,0,0,18.688,9.9ZM3.181,9.9A1.123,1.123,0,0,0,2.121,11v2.2a1.123,1.123,0,0,0,1.06,1.1,1.15,1.15,0,0,0,1.193-1.1V11A1.15,1.15,0,0,0,3.181,9.9Z" fill="#434343"/>
</svg>
