<svg xmlns="http://www.w3.org/2000/svg" width="22" height="20" viewBox="0 0 22 20">
  <path id="Shape" d="M1.106,20a1.111,1.111,0,0,1-.576-.158,1.032,1.032,0,0,1-.53-.9V3.158a1.058,1.058,0,0,1,.755-1l6.6-2.1A1.141,1.141,0,0,1,7.7,0a1.1,1.1,0,0,1,.486.111L14.3,3.033,20.41.111A1.145,1.145,0,0,1,20.9,0a1.159,1.159,0,0,1,.581.158,1.055,1.055,0,0,1,.516.9V15.789a1.034,1.034,0,0,1-.61.942l-6.6,3.158A1.111,1.111,0,0,1,14.3,20a1.17,1.17,0,0,1-.495-.11L7.7,16.965,1.59,19.889A1.1,1.1,0,0,1,1.106,20ZM19.8,2.756l-4.4,2.1V17.244l4.4-2.106Zm-11,0V15.138l4.4,2.106V4.861ZM6.6,2.513l-4.4,1.4V17.244l4.4-2.106Z" transform="translate(0 0)" fill="#434343"/>
</svg>
