<svg xmlns="http://www.w3.org/2000/svg" width="22" height="22.002" viewBox="0 0 22 22.002">
  <path id="Shape" d="M15.4,22H5.5A5.5,5.5,0,0,1,0,16.628V2.751A2.757,2.757,0,0,1,2.757,0H13.2a3.3,3.3,0,0,1,3.3,3.3v11h4.348A1.155,1.155,0,0,1,22,15.456,6.581,6.581,0,0,1,15.4,22Zm-4.029-5.5a5.789,5.789,0,0,1-1.285,3.3H15.4a4.386,4.386,0,0,0,4.268-3.3h-8.3ZM2.757,2.2a.554.554,0,0,0-.557.549V16.5a3.3,3.3,0,0,0,3.3,3.3,3.688,3.688,0,0,0,3.685-3.683v-.662A1.155,1.155,0,0,1,10.338,14.3H14.3V3.3a1.1,1.1,0,0,0-1.1-1.1Zm5.5,12.1a1.1,1.1,0,0,1-1.1-1.1v-.365H6.415a1.1,1.1,0,0,1,0-2.2h2.57a.366.366,0,1,0,0-.732H7.515a2.566,2.566,0,0,1-.358-5.106V4.4a1.1,1.1,0,1,1,2.2,0v.366h.73a1.1,1.1,0,0,1,0,2.2H7.515a.362.362,0,0,0-.358.366.358.358,0,0,0,.358.365H8.985a2.567,2.567,0,0,1,.371,5.108V13.2A1.1,1.1,0,0,1,8.257,14.3Z" fill="#434343"/>
</svg>
